# xmcd
#
# Track frame offsets:
#	150
#	19297
#	37777
#	57979
#	74869
#	91731
#	108465
#	132416
#	152432
#	172144
#
# Disc length: 2562 seconds
#
# Revision: 0
# Processed by: cddbd v1.5.2PL0 Copyright (c) Steve Scherf et al.
# Submitted via: EZCDAudioConverter 8.0.2.1
#
DISCID=860a000a
DTITLE=Tuấn Vũ, Yến Khoa - Mưa Trên Cành Hồng
DYEAR=2011
DGENRE=Contemporary Pop
TTITLE0=Yến Khoa - Chiếc cầu chiều xưa
TTITLE1=Tuấn Vũ - Lại nhớ người yêu
TTITLE2=Yến Khoa - Hoa học trò
TTITLE3=Yến Khoa - Sao em vô tình
TTITLE4=Tuấn Vũ - Còn nhớ không em
TTITLE5=Yến Khoa - Yêu là ảo mộng
TTITLE6=Yến Khoa - Đêm dài nỗi nhớ
TTITLE7=Tuấn Vũ - Cô gái chùa Dơi
TTITLE8=Yến Khoa - Trong cõi yêu
TTITLE9=Yến Khoa - Mưa Trên Cành Hồng
EXTD=
EXTT0=
EXTT1=
EXTT2=
EXTT3=
EXTT4=
EXTT5=
EXTT6=
EXTT7=
EXTT8=
EXTT9=
PLAYORDER=
